<mxfile host="www.draw.io" modified="2019-10-28T05:24:47.390Z" agent="Mozilla/5.0 (Windows NT 6.1; Win64; x64; rv:69.0) Gecko/20100101 Firefox/69.0" etag="jW4rBzsPpRzQzsqHFfL4" version="12.1.4" type="github" pages="1">
  <diagram id="90z9nul0cHA6gAlGrrF-" name="Page-1">
    <mxGraphModel dx="2076" dy="1110" grid="1" gridSize="10" guides="1" tooltips="1" connect="1" arrows="1" fold="1" page="1" pageScale="1" pageWidth="827" pageHeight="1169" math="0" shadow="0">
      <root>
        <mxCell id="0"/>
        <mxCell id="1" parent="0"/>
        <mxCell id="pxL_KVox_eAKRu0wZ2_9-3" style="edgeStyle=orthogonalEdgeStyle;rounded=0;orthogonalLoop=1;jettySize=auto;html=1;" edge="1" parent="1" source="pxL_KVox_eAKRu0wZ2_9-1" target="pxL_KVox_eAKRu0wZ2_9-2">
          <mxGeometry relative="1" as="geometry"/>
        </mxCell>
        <mxCell id="pxL_KVox_eAKRu0wZ2_9-5" style="edgeStyle=orthogonalEdgeStyle;rounded=0;orthogonalLoop=1;jettySize=auto;html=1;entryX=0;entryY=0.5;entryDx=0;entryDy=0;" edge="1" parent="1" source="pxL_KVox_eAKRu0wZ2_9-1" target="pxL_KVox_eAKRu0wZ2_9-4">
          <mxGeometry relative="1" as="geometry"/>
        </mxCell>
        <mxCell id="pxL_KVox_eAKRu0wZ2_9-7" style="edgeStyle=orthogonalEdgeStyle;rounded=0;orthogonalLoop=1;jettySize=auto;html=1;entryX=0;entryY=0.5;entryDx=0;entryDy=0;" edge="1" parent="1" source="pxL_KVox_eAKRu0wZ2_9-1" target="pxL_KVox_eAKRu0wZ2_9-6">
          <mxGeometry relative="1" as="geometry"/>
        </mxCell>
        <mxCell id="pxL_KVox_eAKRu0wZ2_9-9" style="edgeStyle=orthogonalEdgeStyle;rounded=0;orthogonalLoop=1;jettySize=auto;html=1;entryX=0;entryY=0.5;entryDx=0;entryDy=0;" edge="1" parent="1" source="pxL_KVox_eAKRu0wZ2_9-1" target="pxL_KVox_eAKRu0wZ2_9-8">
          <mxGeometry relative="1" as="geometry"/>
        </mxCell>
        <mxCell id="pxL_KVox_eAKRu0wZ2_9-11" style="edgeStyle=orthogonalEdgeStyle;rounded=0;orthogonalLoop=1;jettySize=auto;html=1;entryX=0;entryY=0.5;entryDx=0;entryDy=0;" edge="1" parent="1" source="pxL_KVox_eAKRu0wZ2_9-1" target="pxL_KVox_eAKRu0wZ2_9-10">
          <mxGeometry relative="1" as="geometry"/>
        </mxCell>
        <mxCell id="pxL_KVox_eAKRu0wZ2_9-1" value="&lt;div&gt;100060&lt;/div&gt;&lt;div&gt;input date/code label sensor&lt;br&gt;&lt;/div&gt;" style="rounded=0;whiteSpace=wrap;html=1;fillColor=#d5e8d4;strokeColor=#82b366;" vertex="1" parent="1">
          <mxGeometry x="80" y="70" width="100" height="40" as="geometry"/>
        </mxCell>
        <mxCell id="pxL_KVox_eAKRu0wZ2_9-13" style="edgeStyle=orthogonalEdgeStyle;rounded=0;orthogonalLoop=1;jettySize=auto;html=1;" edge="1" parent="1" source="pxL_KVox_eAKRu0wZ2_9-2" target="pxL_KVox_eAKRu0wZ2_9-12">
          <mxGeometry relative="1" as="geometry"/>
        </mxCell>
        <mxCell id="pxL_KVox_eAKRu0wZ2_9-2" value="&lt;div&gt;001061&lt;/div&gt;&lt;div&gt;input date/code label sensor&lt;br&gt;&lt;/div&gt;" style="rounded=1;whiteSpace=wrap;html=1;fillColor=#d5e8d4;strokeColor=#82b366;" vertex="1" parent="1">
          <mxGeometry x="240" y="65" width="120" height="50" as="geometry"/>
        </mxCell>
        <mxCell id="pxL_KVox_eAKRu0wZ2_9-14" style="edgeStyle=orthogonalEdgeStyle;rounded=0;orthogonalLoop=1;jettySize=auto;html=1;exitX=1;exitY=0.5;exitDx=0;exitDy=0;entryX=0;entryY=0.5;entryDx=0;entryDy=0;" edge="1" parent="1" source="pxL_KVox_eAKRu0wZ2_9-4" target="pxL_KVox_eAKRu0wZ2_9-12">
          <mxGeometry relative="1" as="geometry"/>
        </mxCell>
        <mxCell id="pxL_KVox_eAKRu0wZ2_9-4" value="&lt;div&gt;001062&lt;/div&gt;&lt;div&gt;input date/code label sensor&lt;br&gt;&lt;/div&gt;" style="rounded=1;whiteSpace=wrap;html=1;fillColor=#d5e8d4;strokeColor=#82b366;" vertex="1" parent="1">
          <mxGeometry x="240" y="130" width="120" height="50" as="geometry"/>
        </mxCell>
        <mxCell id="pxL_KVox_eAKRu0wZ2_9-15" style="edgeStyle=orthogonalEdgeStyle;rounded=0;orthogonalLoop=1;jettySize=auto;html=1;exitX=1;exitY=0.5;exitDx=0;exitDy=0;entryX=0;entryY=0.5;entryDx=0;entryDy=0;" edge="1" parent="1" source="pxL_KVox_eAKRu0wZ2_9-6" target="pxL_KVox_eAKRu0wZ2_9-12">
          <mxGeometry relative="1" as="geometry"/>
        </mxCell>
        <mxCell id="pxL_KVox_eAKRu0wZ2_9-6" value="&lt;div&gt;001063&lt;/div&gt;&lt;div&gt;input date/code label sensor&lt;br&gt;&lt;/div&gt;" style="rounded=1;whiteSpace=wrap;html=1;fillColor=#d5e8d4;strokeColor=#82b366;" vertex="1" parent="1">
          <mxGeometry x="240" y="195" width="120" height="50" as="geometry"/>
        </mxCell>
        <mxCell id="pxL_KVox_eAKRu0wZ2_9-16" style="edgeStyle=orthogonalEdgeStyle;rounded=0;orthogonalLoop=1;jettySize=auto;html=1;exitX=1;exitY=0.5;exitDx=0;exitDy=0;entryX=0;entryY=0.5;entryDx=0;entryDy=0;" edge="1" parent="1" source="pxL_KVox_eAKRu0wZ2_9-8" target="pxL_KVox_eAKRu0wZ2_9-12">
          <mxGeometry relative="1" as="geometry"/>
        </mxCell>
        <mxCell id="pxL_KVox_eAKRu0wZ2_9-8" value="&lt;div&gt;001064&lt;/div&gt;&lt;div&gt;input date/code label sensor&lt;br&gt;&lt;/div&gt;" style="rounded=1;whiteSpace=wrap;html=1;fillColor=#d5e8d4;strokeColor=#82b366;" vertex="1" parent="1">
          <mxGeometry x="240" y="260" width="120" height="50" as="geometry"/>
        </mxCell>
        <mxCell id="pxL_KVox_eAKRu0wZ2_9-17" style="edgeStyle=orthogonalEdgeStyle;rounded=0;orthogonalLoop=1;jettySize=auto;html=1;exitX=1;exitY=0.5;exitDx=0;exitDy=0;entryX=0;entryY=0.5;entryDx=0;entryDy=0;" edge="1" parent="1" source="pxL_KVox_eAKRu0wZ2_9-10" target="pxL_KVox_eAKRu0wZ2_9-12">
          <mxGeometry relative="1" as="geometry"/>
        </mxCell>
        <mxCell id="pxL_KVox_eAKRu0wZ2_9-10" value="&lt;div&gt;001065&lt;/div&gt;&lt;div&gt;input date/code label sensor&lt;br&gt;&lt;/div&gt;" style="rounded=1;whiteSpace=wrap;html=1;fillColor=#d5e8d4;strokeColor=#82b366;" vertex="1" parent="1">
          <mxGeometry x="240" y="325" width="120" height="50" as="geometry"/>
        </mxCell>
        <mxCell id="pxL_KVox_eAKRu0wZ2_9-19" style="edgeStyle=orthogonalEdgeStyle;rounded=0;orthogonalLoop=1;jettySize=auto;html=1;" edge="1" parent="1" source="pxL_KVox_eAKRu0wZ2_9-12" target="pxL_KVox_eAKRu0wZ2_9-18">
          <mxGeometry relative="1" as="geometry"/>
        </mxCell>
        <mxCell id="pxL_KVox_eAKRu0wZ2_9-22" style="edgeStyle=orthogonalEdgeStyle;rounded=0;orthogonalLoop=1;jettySize=auto;html=1;entryX=0;entryY=0.75;entryDx=0;entryDy=0;" edge="1" parent="1" source="pxL_KVox_eAKRu0wZ2_9-12" target="pxL_KVox_eAKRu0wZ2_9-20">
          <mxGeometry relative="1" as="geometry">
            <Array as="points">
              <mxPoint x="460" y="200"/>
              <mxPoint x="650" y="200"/>
            </Array>
          </mxGeometry>
        </mxCell>
        <mxCell id="pxL_KVox_eAKRu0wZ2_9-24" style="edgeStyle=orthogonalEdgeStyle;rounded=0;orthogonalLoop=1;jettySize=auto;html=1;exitX=0.25;exitY=1;exitDx=0;exitDy=0;entryX=0;entryY=0.5;entryDx=0;entryDy=0;" edge="1" parent="1" source="pxL_KVox_eAKRu0wZ2_9-12" target="pxL_KVox_eAKRu0wZ2_9-23">
          <mxGeometry relative="1" as="geometry"/>
        </mxCell>
        <mxCell id="pxL_KVox_eAKRu0wZ2_9-12" value="&lt;div&gt;000601&lt;/div&gt;&lt;div&gt;input date/code label sensor&lt;br&gt;&lt;/div&gt;" style="rounded=1;whiteSpace=wrap;html=1;fillColor=#d5e8d4;strokeColor=#82b366;" vertex="1" parent="1">
          <mxGeometry x="420" y="65" width="120" height="50" as="geometry"/>
        </mxCell>
        <mxCell id="pxL_KVox_eAKRu0wZ2_9-21" style="edgeStyle=orthogonalEdgeStyle;rounded=0;orthogonalLoop=1;jettySize=auto;html=1;" edge="1" parent="1" source="pxL_KVox_eAKRu0wZ2_9-18" target="pxL_KVox_eAKRu0wZ2_9-20">
          <mxGeometry relative="1" as="geometry"/>
        </mxCell>
        <mxCell id="pxL_KVox_eAKRu0wZ2_9-18" value="&lt;div&gt;000601 |P|&lt;br&gt;&lt;/div&gt;&lt;div&gt;input date/code label sensor&lt;br&gt;&lt;/div&gt;" style="rounded=0;whiteSpace=wrap;html=1;fillColor=#d5e8d4;strokeColor=#82b366;" vertex="1" parent="1">
          <mxGeometry x="500" y="150" width="100" height="40" as="geometry"/>
        </mxCell>
        <mxCell id="pxL_KVox_eAKRu0wZ2_9-20" value="&lt;div&gt;#00999&lt;/div&gt;&lt;div&gt;UCTR&lt;/div&gt;&lt;div&gt;400608&lt;br&gt;&lt;/div&gt;" style="rounded=0;whiteSpace=wrap;html=1;fillColor=#dae8fc;strokeColor=#6c8ebf;" vertex="1" parent="1">
          <mxGeometry x="670" y="150" width="120" height="55" as="geometry"/>
        </mxCell>
        <mxCell id="pxL_KVox_eAKRu0wZ2_9-26" style="edgeStyle=orthogonalEdgeStyle;rounded=0;orthogonalLoop=1;jettySize=auto;html=1;" edge="1" parent="1" source="pxL_KVox_eAKRu0wZ2_9-23" target="pxL_KVox_eAKRu0wZ2_9-25">
          <mxGeometry relative="1" as="geometry"/>
        </mxCell>
        <mxCell id="pxL_KVox_eAKRu0wZ2_9-23" value="&lt;div&gt;000601&lt;br&gt;&lt;/div&gt;&lt;div&gt;input date/code label sensor&lt;br&gt;&lt;/div&gt;" style="rounded=0;whiteSpace=wrap;html=1;fillColor=#d5e8d4;strokeColor=#82b366;" vertex="1" parent="1">
          <mxGeometry x="470" y="250" width="100" height="40" as="geometry"/>
        </mxCell>
        <mxCell id="pxL_KVox_eAKRu0wZ2_9-28" style="edgeStyle=orthogonalEdgeStyle;rounded=0;orthogonalLoop=1;jettySize=auto;html=1;" edge="1" parent="1" source="pxL_KVox_eAKRu0wZ2_9-25" target="pxL_KVox_eAKRu0wZ2_9-27">
          <mxGeometry relative="1" as="geometry"/>
        </mxCell>
        <mxCell id="pxL_KVox_eAKRu0wZ2_9-25" value="&lt;div&gt;400604&lt;/div&gt;&lt;div&gt;T.01&lt;br&gt;&lt;/div&gt;&lt;div&gt;400603&lt;br&gt;&lt;/div&gt;" style="rounded=0;whiteSpace=wrap;html=1;fillColor=#dae8fc;strokeColor=#6c8ebf;" vertex="1" parent="1">
          <mxGeometry x="600" y="242.5" width="120" height="55" as="geometry"/>
        </mxCell>
        <mxCell id="pxL_KVox_eAKRu0wZ2_9-30" style="edgeStyle=orthogonalEdgeStyle;rounded=0;orthogonalLoop=1;jettySize=auto;html=1;exitX=0.5;exitY=1;exitDx=0;exitDy=0;" edge="1" parent="1" source="pxL_KVox_eAKRu0wZ2_9-27" target="pxL_KVox_eAKRu0wZ2_9-29">
          <mxGeometry relative="1" as="geometry"/>
        </mxCell>
        <mxCell id="pxL_KVox_eAKRu0wZ2_9-36" style="edgeStyle=orthogonalEdgeStyle;rounded=0;orthogonalLoop=1;jettySize=auto;html=1;exitX=0.25;exitY=1;exitDx=0;exitDy=0;entryX=0;entryY=0.5;entryDx=0;entryDy=0;" edge="1" parent="1" source="pxL_KVox_eAKRu0wZ2_9-27" target="pxL_KVox_eAKRu0wZ2_9-35">
          <mxGeometry relative="1" as="geometry"/>
        </mxCell>
        <mxCell id="pxL_KVox_eAKRu0wZ2_9-27" value="&lt;div&gt;000602&lt;/div&gt;&lt;div&gt;date/time label error filtered detection&lt;br&gt;&lt;/div&gt;" style="rounded=1;whiteSpace=wrap;html=1;fillColor=#d5e8d4;strokeColor=#82b366;" vertex="1" parent="1">
          <mxGeometry x="750" y="245" width="120" height="50" as="geometry"/>
        </mxCell>
        <mxCell id="pxL_KVox_eAKRu0wZ2_9-32" style="edgeStyle=orthogonalEdgeStyle;rounded=0;orthogonalLoop=1;jettySize=auto;html=1;" edge="1" parent="1" source="pxL_KVox_eAKRu0wZ2_9-29" target="pxL_KVox_eAKRu0wZ2_9-31">
          <mxGeometry relative="1" as="geometry"/>
        </mxCell>
        <mxCell id="pxL_KVox_eAKRu0wZ2_9-29" value="&lt;div&gt;000602 |P|&lt;br&gt;&lt;/div&gt;&lt;div&gt;date/time label error filtered detection&lt;br&gt;&lt;/div&gt;" style="rounded=0;whiteSpace=wrap;html=1;fillColor=#d5e8d4;strokeColor=#82b366;" vertex="1" parent="1">
          <mxGeometry x="800" y="340" width="120" height="45" as="geometry"/>
        </mxCell>
        <mxCell id="pxL_KVox_eAKRu0wZ2_9-34" style="edgeStyle=orthogonalEdgeStyle;rounded=0;orthogonalLoop=1;jettySize=auto;html=1;entryX=0;entryY=0.5;entryDx=0;entryDy=0;" edge="1" parent="1" source="pxL_KVox_eAKRu0wZ2_9-31" target="pxL_KVox_eAKRu0wZ2_9-33">
          <mxGeometry relative="1" as="geometry"/>
        </mxCell>
        <mxCell id="pxL_KVox_eAKRu0wZ2_9-31" value="&lt;div&gt;001305&lt;/div&gt;&lt;div&gt;Wrapper in production&lt;br&gt;&lt;/div&gt;" style="rounded=0;whiteSpace=wrap;html=1;fillColor=#d5e8d4;strokeColor=#82b366;" vertex="1" parent="1">
          <mxGeometry x="970" y="342.5" width="100" height="40" as="geometry"/>
        </mxCell>
        <mxCell id="pxL_KVox_eAKRu0wZ2_9-33" value="&lt;div&gt;#00999&lt;/div&gt;&lt;div&gt;UCTR&lt;/div&gt;&lt;div&gt;400606&lt;br&gt;&lt;/div&gt;" style="rounded=0;whiteSpace=wrap;html=1;fillColor=#dae8fc;strokeColor=#6c8ebf;" vertex="1" parent="1">
          <mxGeometry x="1100" y="335" width="120" height="55" as="geometry"/>
        </mxCell>
        <mxCell id="pxL_KVox_eAKRu0wZ2_9-38" style="edgeStyle=orthogonalEdgeStyle;rounded=0;orthogonalLoop=1;jettySize=auto;html=1;entryX=0;entryY=0.75;entryDx=0;entryDy=0;" edge="1" parent="1" source="pxL_KVox_eAKRu0wZ2_9-35" target="pxL_KVox_eAKRu0wZ2_9-37">
          <mxGeometry relative="1" as="geometry"/>
        </mxCell>
        <mxCell id="pxL_KVox_eAKRu0wZ2_9-35" value="&lt;div&gt;000602 &lt;br&gt;&lt;/div&gt;&lt;div&gt;date/time label error filtered detection&lt;br&gt;&lt;/div&gt;" style="rounded=0;whiteSpace=wrap;html=1;fillColor=#d5e8d4;strokeColor=#82b366;" vertex="1" parent="1">
          <mxGeometry x="810" y="430" width="120" height="45" as="geometry"/>
        </mxCell>
        <mxCell id="pxL_KVox_eAKRu0wZ2_9-42" style="edgeStyle=orthogonalEdgeStyle;rounded=0;orthogonalLoop=1;jettySize=auto;html=1;" edge="1" parent="1" source="pxL_KVox_eAKRu0wZ2_9-37" target="pxL_KVox_eAKRu0wZ2_9-41">
          <mxGeometry relative="1" as="geometry"/>
        </mxCell>
        <mxCell id="pxL_KVox_eAKRu0wZ2_9-37" value="&lt;div&gt;001301&lt;/div&gt;&lt;div&gt;W_RESET&lt;br&gt;&lt;/div&gt;" style="rounded=0;whiteSpace=wrap;html=1;fillColor=#f8cecc;strokeColor=#b85450;" vertex="1" parent="1">
          <mxGeometry x="970" y="430" width="100" height="40" as="geometry"/>
        </mxCell>
        <mxCell id="pxL_KVox_eAKRu0wZ2_9-45" style="edgeStyle=orthogonalEdgeStyle;rounded=0;orthogonalLoop=1;jettySize=auto;html=1;" edge="1" parent="1" source="pxL_KVox_eAKRu0wZ2_9-41" target="pxL_KVox_eAKRu0wZ2_9-43">
          <mxGeometry relative="1" as="geometry">
            <Array as="points">
              <mxPoint x="1180" y="490"/>
              <mxPoint x="870" y="490"/>
            </Array>
          </mxGeometry>
        </mxCell>
        <mxCell id="pxL_KVox_eAKRu0wZ2_9-47" style="edgeStyle=orthogonalEdgeStyle;rounded=0;orthogonalLoop=1;jettySize=auto;html=1;" edge="1" parent="1" source="pxL_KVox_eAKRu0wZ2_9-41" target="pxL_KVox_eAKRu0wZ2_9-46">
          <mxGeometry relative="1" as="geometry"/>
        </mxCell>
        <mxCell id="pxL_KVox_eAKRu0wZ2_9-41" value="&lt;div&gt;000603 &lt;br&gt;&lt;/div&gt;&lt;div&gt;ALM date/time label error&lt;br&gt;&lt;/div&gt;" style="rounded=1;whiteSpace=wrap;html=1;fillColor=#d5e8d4;strokeColor=#82b366;" vertex="1" parent="1">
          <mxGeometry x="1120" y="425" width="120" height="50" as="geometry"/>
        </mxCell>
        <mxCell id="pxL_KVox_eAKRu0wZ2_9-44" style="edgeStyle=orthogonalEdgeStyle;rounded=0;orthogonalLoop=1;jettySize=auto;html=1;entryX=0;entryY=0.5;entryDx=0;entryDy=0;" edge="1" parent="1" source="pxL_KVox_eAKRu0wZ2_9-43" target="pxL_KVox_eAKRu0wZ2_9-37">
          <mxGeometry relative="1" as="geometry"/>
        </mxCell>
        <mxCell id="pxL_KVox_eAKRu0wZ2_9-43" value="&lt;div&gt;000603 &lt;br&gt;&lt;/div&gt;&lt;div&gt;ALM date/time label error&lt;br&gt;&lt;/div&gt;" style="rounded=0;whiteSpace=wrap;html=1;fillColor=#d5e8d4;strokeColor=#82b366;" vertex="1" parent="1">
          <mxGeometry x="810" y="510" width="120" height="45" as="geometry"/>
        </mxCell>
        <mxCell id="pxL_KVox_eAKRu0wZ2_9-49" style="edgeStyle=orthogonalEdgeStyle;rounded=0;orthogonalLoop=1;jettySize=auto;html=1;" edge="1" parent="1" source="pxL_KVox_eAKRu0wZ2_9-46" target="pxL_KVox_eAKRu0wZ2_9-48">
          <mxGeometry relative="1" as="geometry"/>
        </mxCell>
        <mxCell id="pxL_KVox_eAKRu0wZ2_9-46" value="&lt;div&gt;000603 &lt;br&gt;&lt;/div&gt;&lt;div&gt;ALM date/time label error&lt;br&gt;&lt;/div&gt;" style="rounded=0;whiteSpace=wrap;html=1;fillColor=#d5e8d4;strokeColor=#82b366;" vertex="1" parent="1">
          <mxGeometry x="1170" y="530" width="120" height="45" as="geometry"/>
        </mxCell>
        <mxCell id="pxL_KVox_eAKRu0wZ2_9-48" value="&lt;div&gt;001323&lt;/div&gt;&lt;div&gt;WRAPPER CRITICAL ERROR&lt;br&gt;&lt;/div&gt;" style="rounded=1;whiteSpace=wrap;html=1;fillColor=#d5e8d4;strokeColor=#82b366;" vertex="1" parent="1">
          <mxGeometry x="1340" y="527.5" width="120" height="50" as="geometry"/>
        </mxCell>
        <mxCell id="pxL_KVox_eAKRu0wZ2_9-50" value="C19WRP2" style="text;html=1;resizable=0;points=[];autosize=1;align=left;verticalAlign=top;spacingTop=-4;" vertex="1" parent="1">
          <mxGeometry x="45" y="640" width="70" height="20" as="geometry"/>
        </mxCell>
        <mxCell id="pxL_KVox_eAKRu0wZ2_9-51" value="" style="endArrow=none;dashed=1;html=1;" edge="1" parent="1">
          <mxGeometry width="50" height="50" relative="1" as="geometry">
            <mxPoint x="20" y="620" as="sourcePoint"/>
            <mxPoint x="1620" y="620" as="targetPoint"/>
          </mxGeometry>
        </mxCell>
        <mxCell id="pxL_KVox_eAKRu0wZ2_9-56" style="edgeStyle=orthogonalEdgeStyle;rounded=0;orthogonalLoop=1;jettySize=auto;html=1;" edge="1" parent="1" source="pxL_KVox_eAKRu0wZ2_9-52" target="pxL_KVox_eAKRu0wZ2_9-55">
          <mxGeometry relative="1" as="geometry"/>
        </mxCell>
        <mxCell id="pxL_KVox_eAKRu0wZ2_9-52" value="SIGNAL" style="rounded=0;whiteSpace=wrap;html=1;fillColor=#d5e8d4;strokeColor=#82b366;" vertex="1" parent="1">
          <mxGeometry x="300" y="760" width="120" height="60" as="geometry"/>
        </mxCell>
        <mxCell id="pxL_KVox_eAKRu0wZ2_9-54" style="edgeStyle=orthogonalEdgeStyle;rounded=0;orthogonalLoop=1;jettySize=auto;html=1;exitX=1;exitY=0.5;exitDx=0;exitDy=0;" edge="1" parent="1" source="pxL_KVox_eAKRu0wZ2_9-53" target="pxL_KVox_eAKRu0wZ2_9-52">
          <mxGeometry relative="1" as="geometry"/>
        </mxCell>
        <mxCell id="pxL_KVox_eAKRu0wZ2_9-61" style="edgeStyle=orthogonalEdgeStyle;rounded=0;orthogonalLoop=1;jettySize=auto;html=1;exitX=1;exitY=0.75;exitDx=0;exitDy=0;entryX=0;entryY=0.5;entryDx=0;entryDy=0;" edge="1" parent="1" source="pxL_KVox_eAKRu0wZ2_9-53" target="pxL_KVox_eAKRu0wZ2_9-59">
          <mxGeometry relative="1" as="geometry"/>
        </mxCell>
        <mxCell id="pxL_KVox_eAKRu0wZ2_9-53" value="PRODUCTION" style="rounded=0;whiteSpace=wrap;html=1;fillColor=#d5e8d4;strokeColor=#82b366;" vertex="1" parent="1">
          <mxGeometry x="140" y="760" width="120" height="60" as="geometry"/>
        </mxCell>
        <mxCell id="pxL_KVox_eAKRu0wZ2_9-55" value="&lt;div&gt;TON1&lt;br&gt;&lt;/div&gt;&lt;div&gt;5sec&lt;/div&gt;" style="rounded=0;whiteSpace=wrap;html=1;fillColor=#dae8fc;strokeColor=#6c8ebf;" vertex="1" parent="1">
          <mxGeometry x="480" y="760" width="120" height="60" as="geometry"/>
        </mxCell>
        <mxCell id="pxL_KVox_eAKRu0wZ2_9-58" style="edgeStyle=orthogonalEdgeStyle;rounded=0;orthogonalLoop=1;jettySize=auto;html=1;" edge="1" source="pxL_KVox_eAKRu0wZ2_9-59" target="pxL_KVox_eAKRu0wZ2_9-60" parent="1">
          <mxGeometry relative="1" as="geometry"/>
        </mxCell>
        <mxCell id="pxL_KVox_eAKRu0wZ2_9-59" value="SIGNAL" style="rounded=0;whiteSpace=wrap;html=1;fillColor=#f8cecc;strokeColor=#b85450;" vertex="1" parent="1">
          <mxGeometry x="300" y="860" width="120" height="60" as="geometry"/>
        </mxCell>
        <mxCell id="pxL_KVox_eAKRu0wZ2_9-60" value="&lt;div&gt;TON2&lt;br&gt;&lt;/div&gt;&lt;div&gt;5sec&lt;/div&gt;" style="rounded=0;whiteSpace=wrap;html=1;fillColor=#dae8fc;strokeColor=#6c8ebf;" vertex="1" parent="1">
          <mxGeometry x="480" y="860" width="120" height="60" as="geometry"/>
        </mxCell>
        <mxCell id="pxL_KVox_eAKRu0wZ2_9-62" value="ERROR" style="rounded=1;whiteSpace=wrap;html=1;fillColor=#d5e8d4;strokeColor=#82b366;" vertex="1" parent="1">
          <mxGeometry x="610" y="1000" width="120" height="60" as="geometry"/>
        </mxCell>
        <mxCell id="pxL_KVox_eAKRu0wZ2_9-71" style="edgeStyle=orthogonalEdgeStyle;rounded=0;orthogonalLoop=1;jettySize=auto;html=1;" edge="1" parent="1" source="pxL_KVox_eAKRu0wZ2_9-63" target="pxL_KVox_eAKRu0wZ2_9-68">
          <mxGeometry relative="1" as="geometry"/>
        </mxCell>
        <mxCell id="pxL_KVox_eAKRu0wZ2_9-63" value="&lt;div&gt;TON1.DN&lt;br&gt;&lt;/div&gt;" style="rounded=0;whiteSpace=wrap;html=1;fillColor=#d5e8d4;strokeColor=#82b366;" vertex="1" parent="1">
          <mxGeometry x="300" y="950" width="120" height="60" as="geometry"/>
        </mxCell>
        <mxCell id="pxL_KVox_eAKRu0wZ2_9-70" style="edgeStyle=orthogonalEdgeStyle;rounded=0;orthogonalLoop=1;jettySize=auto;html=1;" edge="1" parent="1" source="pxL_KVox_eAKRu0wZ2_9-64" target="pxL_KVox_eAKRu0wZ2_9-68">
          <mxGeometry relative="1" as="geometry"/>
        </mxCell>
        <mxCell id="pxL_KVox_eAKRu0wZ2_9-64" value="&lt;div&gt;TON2.DN&lt;br&gt;&lt;/div&gt;" style="rounded=0;whiteSpace=wrap;html=1;fillColor=#d5e8d4;strokeColor=#82b366;" vertex="1" parent="1">
          <mxGeometry x="300" y="1050" width="120" height="60" as="geometry"/>
        </mxCell>
        <mxCell id="pxL_KVox_eAKRu0wZ2_9-69" style="edgeStyle=orthogonalEdgeStyle;rounded=0;orthogonalLoop=1;jettySize=auto;html=1;entryX=0;entryY=0.75;entryDx=0;entryDy=0;" edge="1" parent="1" source="pxL_KVox_eAKRu0wZ2_9-67" target="pxL_KVox_eAKRu0wZ2_9-68">
          <mxGeometry relative="1" as="geometry">
            <Array as="points">
              <mxPoint x="440" y="1190"/>
              <mxPoint x="440" y="1045"/>
            </Array>
          </mxGeometry>
        </mxCell>
        <mxCell id="pxL_KVox_eAKRu0wZ2_9-67" value="ERROR" style="rounded=0;whiteSpace=wrap;html=1;fillColor=#d5e8d4;strokeColor=#82b366;" vertex="1" parent="1">
          <mxGeometry x="300" y="1160" width="120" height="60" as="geometry"/>
        </mxCell>
        <mxCell id="pxL_KVox_eAKRu0wZ2_9-72" style="edgeStyle=orthogonalEdgeStyle;rounded=0;orthogonalLoop=1;jettySize=auto;html=1;" edge="1" parent="1" source="pxL_KVox_eAKRu0wZ2_9-68" target="pxL_KVox_eAKRu0wZ2_9-62">
          <mxGeometry relative="1" as="geometry"/>
        </mxCell>
        <mxCell id="pxL_KVox_eAKRu0wZ2_9-68" value="Reset" style="rounded=0;whiteSpace=wrap;html=1;fillColor=#f8cecc;strokeColor=#b85450;" vertex="1" parent="1">
          <mxGeometry x="450" y="1000" width="120" height="60" as="geometry"/>
        </mxCell>
      </root>
    </mxGraphModel>
  </diagram>
</mxfile>
